<svg xmlns="http://www.w3.org/2000/svg" width="48" height="48" viewBox="0 0 48 48">
  <defs>
    <linearGradient id="grad1" x1="0%" y1="0%" x2="100%" y2="100%">
      <stop offset="0%" style="stop-color:#4f46e5;stop-opacity:1" />
      <stop offset="100%" style="stop-color:#818cf8;stop-opacity:1" />
    </linearGradient>
  </defs>
  <path fill="url(#grad1)" d="M4,8 L44,8 C45.1045695,8 46,8.8954305 46,10 L46,38 C46,39.1045695 45.1045695,40 44,40 L4,40 C2.8954305,40 2,39.1045695 2,38 L2,10 C2,8.8954305 2.8954305,8 4,8 Z M24,12 C28.418278,12 32,15.581722 32,20 C32,24.418278 28.418278,28 24,28 C19.581722,28 16,24.418278 16,20 C16,15.581722 19.581722,12 24,12 Z M24,16 C21.790861,16 20,17.790861 20,20 C20,22.209139 21.790861,24 24,24 C26.209139,24 28,22.209139 28,20 C28,17.790861 26.209139,16 24,16 Z"/>
  <path fill="white" d="M12,12 L36,12 L36,36 L12,36 L12,12 Z M14,14 L14,34 L34,34 L34,14 L14,14 Z"/>
  <path fill="white" d="M22,18 L26,18 L26,22 L22,22 L22,18 Z M22,26 L26,26 L26,30 L22,30 L22,26 Z"/>
</svg>
